<svg width="130" height="27" viewBox="0 0 130 27" fill="none" xmlns="http://www.w3.org/2000/svg">
<path d="M8.652 1.12H10.304L18.564 21H16.492L13.916 14.784H4.984L2.436 21H0.336L8.652 1.12ZM13.468 13.244L9.464 3.416L5.404 13.244H13.468ZM28.4699 21.28C27.2565 21.28 26.1645 20.9627 25.1939 20.328C24.2419 19.6933 23.4859 18.9093 22.9259 17.976V26.964H21.0219V6.412H22.7299V9.24C23.3085 8.32533 24.0739 7.588 25.0259 7.028C25.9965 6.44933 27.0419 6.16 28.1619 6.16C29.1699 6.16 30.0939 6.37467 30.9339 6.804C31.7739 7.21467 32.5019 7.77467 33.1179 8.484C33.7525 9.19333 34.2379 10.0053 34.5739 10.92C34.9099 11.816 35.0779 12.7493 35.0779 13.72C35.0779 15.0827 34.7979 16.3427 34.2379 17.5C33.6965 18.6387 32.9219 19.5533 31.9139 20.244C30.9245 20.9347 29.7765 21.28 28.4699 21.28ZM27.9379 19.6C29.0019 19.6 29.9165 19.32 30.6819 18.76C31.4659 18.1813 32.0725 17.444 32.5019 16.548C32.9312 15.652 33.1459 14.7093 33.1459 13.72C33.1459 12.6747 32.9032 11.704 32.4179 10.808C31.9325 9.912 31.2792 9.19333 30.4579 8.652C29.6552 8.11067 28.7405 7.84 27.7139 7.84C27.0792 7.84 26.4072 8.008 25.6979 8.344C25.0072 8.66133 24.3912 9.1 23.8499 9.66C23.3272 10.2013 23.0192 10.7987 22.9259 11.452V15.932C23.3552 16.9587 24.0272 17.8267 24.9419 18.536C25.8565 19.2453 26.8552 19.6 27.9379 19.6ZM45.5831 8.092C44.3138 8.12933 43.1938 8.484 42.2231 9.156C41.2711 9.828 40.5991 10.752 40.2071 11.928V21H38.3031V6.412H40.0951V9.912C40.5991 8.88533 41.2618 8.05467 42.0831 7.42C42.9231 6.78533 43.8098 6.43067 44.7431 6.356C44.9298 6.33733 45.0885 6.328 45.2191 6.328C45.3498 6.328 45.4711 6.33733 45.5831 6.356V8.092ZM53.898 21.28C52.498 21.28 51.2474 20.9347 50.146 20.244C49.0634 19.5533 48.214 18.6387 47.598 17.5C46.982 16.3427 46.674 15.092 46.674 13.748C46.674 12.3853 46.982 11.1347 47.598 9.996C48.2327 8.83867 49.0914 7.91467 50.174 7.224C51.2754 6.51467 52.5167 6.16 53.898 6.16C55.298 6.16 56.5394 6.51467 57.622 7.224C58.7234 7.91467 59.582 8.83867 60.198 9.996C60.8327 11.1347 61.15 12.3853 61.15 13.748C61.15 15.092 60.842 16.3427 60.226 17.5C59.61 18.6387 58.7514 19.5533 57.65 20.244C56.5674 20.9347 55.3167 21.28 53.898 21.28ZM48.606 13.776C48.606 14.8587 48.8394 15.848 49.306 16.744C49.7914 17.6213 50.4354 18.3213 51.238 18.844C52.0407 19.348 52.9274 19.6 53.898 19.6C54.8687 19.6 55.7554 19.3387 56.558 18.816C57.3607 18.2933 58.0047 17.584 58.49 16.688C58.9754 15.792 59.218 14.8027 59.218 13.72C59.218 12.6373 58.9754 11.648 58.49 10.752C58.0047 9.856 57.3607 9.14667 56.558 8.624C55.7554 8.10133 54.8687 7.84 53.898 7.84C52.946 7.84 52.0687 8.11067 51.266 8.652C50.4634 9.17467 49.8194 9.884 49.334 10.78C48.8487 11.676 48.606 12.6747 48.606 13.776ZM68.1822 21L62.2742 6.412H64.2622L69.2462 19.096L74.2582 6.412H76.1342L70.2262 21H68.1822ZM77.2404 16.8C77.2404 15.904 77.5017 15.1293 78.0244 14.476C78.5471 13.804 79.2657 13.2813 80.1804 12.908C81.1137 12.5347 82.1871 12.348 83.4004 12.348C84.1097 12.348 84.8471 12.4133 85.6124 12.544C86.3777 12.656 87.0591 12.8147 87.6564 13.02V11.788C87.6564 10.556 87.2924 9.576 86.5644 8.848C85.8364 8.12 84.8284 7.756 83.5404 7.756C82.7751 7.756 82.0097 7.90533 81.2444 8.204C80.4791 8.484 79.6857 8.904 78.8644 9.464L78.1364 8.12C79.0884 7.46667 80.0217 6.98133 80.9364 6.664C81.8511 6.328 82.7844 6.16 83.7364 6.16C85.5284 6.16 86.9471 6.67333 87.9924 7.7C89.0377 8.72667 89.5604 10.1453 89.5604 11.956V18.704C89.5604 19.208 89.7937 19.4693 90.2604 19.488V21C89.8497 21.056 89.5604 21.0747 89.3924 21.056C88.9257 21.0373 88.5711 20.888 88.3284 20.608C88.0857 20.328 87.9551 20.0293 87.9364 19.712L87.9084 18.648C87.2551 19.488 86.4057 20.1413 85.3604 20.608C84.3151 21.056 83.2511 21.28 82.1684 21.28C81.2164 21.28 80.3671 21.084 79.6204 20.692C78.8737 20.2813 78.2857 19.74 77.8564 19.068C77.4457 18.3773 77.2404 17.6213 77.2404 16.8ZM87.0124 17.92C87.4417 17.416 87.6564 16.9493 87.6564 16.52V14.392C86.3684 13.888 85.0244 13.636 83.6244 13.636C82.2617 13.636 81.1604 13.9067 80.3204 14.448C79.4804 14.9893 79.0604 15.7267 79.0604 16.66C79.0604 17.4627 79.3684 18.1907 79.9844 18.844C80.6191 19.4973 81.4964 19.824 82.6164 19.824C83.5311 19.824 84.3804 19.6467 85.1644 19.292C85.9671 18.9373 86.5831 18.48 87.0124 17.92ZM92.6942 13.748C92.6942 12.3667 92.9742 11.1067 93.5342 9.968C94.1129 8.81067 94.9062 7.88667 95.9142 7.196C96.9222 6.50533 98.0702 6.16 99.3582 6.16C100.572 6.16 101.654 6.48667 102.606 7.14C103.577 7.77467 104.333 8.54933 104.874 9.464V0.559999H106.778V18.704C106.778 19.208 107.002 19.4693 107.45 19.488V21C107.077 21.056 106.788 21.0747 106.582 21.056C106.172 21.0373 105.817 20.888 105.518 20.608C105.238 20.3093 105.098 19.9733 105.098 19.6V18.172C104.52 19.124 103.736 19.88 102.746 20.44C101.757 21 100.73 21.28 99.6662 21.28C98.6582 21.28 97.7249 21.0747 96.8662 20.664C96.0076 20.2533 95.2609 19.6933 94.6262 18.984C94.0102 18.2747 93.5342 17.472 93.1982 16.576C92.8622 15.6613 92.6942 14.7187 92.6942 13.748ZM104.874 15.988V11.48C104.632 10.808 104.24 10.2013 103.698 9.66C103.157 9.1 102.541 8.66133 101.85 8.344C101.178 8.008 100.506 7.84 99.8342 7.84C98.7889 7.84 97.8742 8.12933 97.0902 8.708C96.3249 9.268 95.7276 10.0053 95.2982 10.92C94.8689 11.816 94.6542 12.7587 94.6542 13.748C94.6542 14.7933 94.8876 15.764 95.3542 16.66C95.8396 17.556 96.4929 18.2747 97.3142 18.816C98.1356 19.3387 99.0596 19.6 100.086 19.6C100.721 19.6 101.384 19.4413 102.074 19.124C102.784 18.788 103.4 18.3493 103.922 17.808C104.464 17.2667 104.781 16.66 104.874 15.988ZM111.092 3.36V0.559999H112.996V3.36H111.092ZM111.092 21V6.412H112.996V21H111.092ZM129.454 21H127.55V12.852C127.55 11.1347 127.289 9.884 126.766 9.1C126.262 8.29733 125.478 7.896 124.414 7.896C123.667 7.896 122.93 8.08267 122.202 8.456C121.474 8.81067 120.83 9.30533 120.27 9.94C119.729 10.556 119.337 11.2653 119.094 12.068V21H117.19V6.412H118.926V9.716C119.505 8.652 120.354 7.79333 121.474 7.14C122.594 6.48667 123.807 6.16 125.114 6.16C126.197 6.16 127.055 6.42133 127.69 6.944C128.325 7.448 128.773 8.176 129.034 9.128C129.314 10.0613 129.454 11.172 129.454 12.46V21Z" fill="white"/>
</svg>
